<svg xmlns="http://www.w3.org/2000/svg" xmlns:xlink="http://www.w3.org/1999/xlink" width="650pt" height="204pt" viewBox="0 0 650 204" version="1.1"><g id="surface1"><path style=" stroke:none;fill-rule:nonzero;fill:rgb(77.2995%,12.89978%,15.299988%);fill-opacity:1;" d="M 273.191406 78.570313 C 267.683594 69.714844 258.832031 68.417969 250.300781 68.3125 C 241.445313 68.3125 227.410156 71.546875 227.410156 83.644531 C 227.410156 93.25 237.773438 95.523438 250.515625 97.898438 C 265.09375 100.707031 280.207031 103.296875 280.207031 119.601563 C 280.101563 136.664063 262.933594 140.765625 250.300781 140.765625 C 238.53125 140.765625 225.136719 135.902344 219.308594 124.355469 L 224.492188 121.761719 C 229.132813 130.941406 241.011719 135.476563 250.300781 135.476563 C 259.585938 135.476563 274.378906 132.886719 274.378906 119.492188 C 274.484375 108.15625 261.960938 105.667969 249.546875 103.296875 C 235.722656 100.597656 221.574219 97.785156 221.574219 83.859375 C 221.253906 67.878906 237.882813 62.910156 250.300781 62.910156 C 261.097656 62.910156 270.492188 64.636719 277.941406 75.761719 Z M 273.191406 78.570313 "/><path style=" stroke:none;fill-rule:nonzero;fill:rgb(77.2995%,12.89978%,15.299988%);fill-opacity:1;" d="M 340.703125 110.746094 C 340.59375 97.570313 331.957031 90.230469 319.105469 90.230469 C 308.09375 90.230469 298.589844 97.679688 297.402344 110.746094 Z M 292 112.90625 C 292 96.925781 304.097656 85.371094 319.105469 85.371094 C 334.113281 85.371094 347.503906 94.550781 345.457031 115.390625 L 297.402344 115.390625 C 298.484375 127.917969 308.09375 135.148438 319.105469 135.148438 C 326.128906 135.148438 334.332031 132.339844 338.328125 127.050781 L 342.109375 130.074219 C 336.925781 136.875 327.636719 140.335938 319.105469 140.335938 C 304.097656 140.335938 292 129.859375 292 112.90625 "/><path style=" stroke:none;fill-rule:nonzero;fill:rgb(77.2995%,12.89978%,15.299988%);fill-opacity:1;" d="M 402.921875 132.125 C 397.519531 137.523438 390.503906 140.117188 383.484375 140.117188 C 368.472656 140.117188 356.054688 129.753906 356.054688 112.90625 C 356.054688 96.0625 368.039063 85.695313 383.484375 85.695313 C 390.503906 85.695313 397.519531 88.394531 402.921875 93.683594 L 399.464844 97.03125 C 395.144531 92.714844 389.203125 90.660156 383.484375 90.660156 C 371.386719 90.660156 361.238281 98.546875 361.238281 112.90625 C 361.238281 127.269531 371.386719 135.148438 383.484375 135.148438 C 389.203125 135.148438 395.039063 132.886719 399.359375 128.566406 Z M 402.921875 132.125 "/><path style=" stroke:none;fill-rule:nonzero;fill:rgb(77.2995%,12.89978%,15.299988%);fill-opacity:1;" d="M 461.351563 113.011719 C 461.351563 99.191406 451.527344 90.230469 439.433594 90.230469 C 427.335938 90.230469 417.511719 99.191406 417.511719 113.011719 C 417.511719 126.835938 427.335938 135.148438 439.433594 135.148438 C 451.527344 135.148438 461.351563 126.835938 461.351563 113.011719 M 412.328125 113.011719 C 412.328125 96.0625 424.421875 85.265625 439.433594 85.265625 C 454.441406 85.265625 466.539063 96.0625 466.539063 113.011719 C 466.539063 129.964844 454.441406 140.332031 439.433594 140.332031 C 424.421875 140.332031 412.328125 129.964844 412.328125 113.011719 "/><path style=" stroke:none;fill-rule:nonzero;fill:rgb(77.2995%,12.89978%,15.299988%);fill-opacity:1;" d="M 483.945313 86.234375 L 483.945313 95.738281 C 488.046875 88.394531 495.496094 85.371094 502.949219 85.265625 C 517.199219 85.265625 527.027344 94.011719 527.027344 108.804688 L 527.027344 139.578125 L 521.738281 139.578125 L 521.738281 108.910156 C 521.738281 96.816406 514.285156 90.339844 502.730469 90.449219 C 491.71875 90.554688 484.046875 98.871094 484.046875 109.882813 L 484.046875 139.578125 L 478.757813 139.578125 L 478.757813 86.234375 Z M 483.945313 86.234375 "/><path style=" stroke:none;fill-rule:nonzero;fill:rgb(77.2995%,12.89978%,15.299988%);fill-opacity:1;" d="M 543.136719 112.90625 C 543.136719 127.699219 552.960938 135.261719 564.949219 135.261719 C 577.476563 135.261719 586.757813 126.078125 586.757813 112.796875 C 586.757813 99.519531 577.261719 90.449219 564.949219 90.449219 C 552.960938 90.449219 543.136719 97.898438 543.136719 112.90625 M 592.054688 63.992188 L 592.054688 139.578125 L 586.871094 139.578125 L 586.871094 127.804688 C 582.441406 135.902344 573.695313 140.4375 564.621094 140.4375 C 549.722656 140.4375 537.949219 130.613281 537.949219 112.90625 C 537.949219 95.304688 549.828125 85.371094 564.734375 85.371094 C 573.914063 85.371094 582.550781 89.261719 586.871094 97.898438 L 586.871094 63.992188 Z M 592.054688 63.992188 "/><path style=" stroke:none;fill-rule:nonzero;fill:rgb(77.2995%,12.89978%,15.299988%);fill-opacity:1;" d="M 643.90625 95.957031 C 638.507813 91.203125 633.21875 90.339844 627.277344 90.339844 C 618.964844 90.230469 610.96875 93.363281 611.1875 100.164063 C 611.402344 107.289063 620.6875 108.695313 627.382813 109.882813 C 636.886719 111.503906 649.953125 113.125 649.414063 125.542969 C 649.085938 137.308594 636.886719 140.4375 627.496094 140.4375 C 618.097656 140.4375 608.808594 136.875 604.171875 129.753906 L 608.054688 126.296875 C 612.484375 132.667969 620.472656 135.367188 627.597656 135.367188 C 634.078125 135.367188 643.90625 133.640625 644.230469 125.214844 C 644.445313 117.546875 635.59375 116.039063 626.84375 114.632813 C 616.476563 112.90625 606.21875 110.964844 606.113281 100.273438 C 606.003906 89.800781 616.476563 85.265625 627.277344 85.371094 C 635.050781 85.371094 641.855469 87.527344 647.144531 92.496094 Z M 643.90625 95.957031 "/><path style=" stroke:none;fill-rule:nonzero;fill:rgb(77.2995%,12.89978%,15.299988%);fill-opacity:1;" d="M 39.492188 82.671875 C 39.597656 67.011719 55.042969 63.234375 67.675781 63.234375 C 85.597656 63.234375 95.425781 71.980469 95.535156 83.210938 C 95.535156 91.742188 88.40625 99.191406 79.554688 100.8125 C 88.625 102.539063 96.941406 110.097656 96.941406 119.386719 C 96.941406 131.265625 86.898438 140.765625 67.890625 140.765625 C 54.824219 140.765625 38.304688 136.988281 38.304688 120.574219 L 43.917969 120.574219 C 44.027344 134.179688 58.390625 135.367188 67.996094 135.367188 C 83.871094 135.367188 91.433594 128.132813 91.433594 119.601563 C 91.433594 111.71875 83.441406 103.402344 67.890625 103.402344 L 55.363281 103.402344 L 55.363281 98.546875 L 67.570313 98.546875 C 82.578125 98.546875 90.132813 90.449219 90.246094 83.210938 C 90.351563 75.328125 82.789063 68.09375 67.78125 68.09375 C 58.605469 68.09375 45 69.820313 45 82.671875 Z M 39.492188 82.671875 "/><path style=" stroke:none;fill-rule:nonzero;fill:rgb(77.2995%,12.89978%,15.299988%);fill-opacity:1;" d="M 113.484375 110.964844 C 113.484375 143.359375 159.910156 143.246094 159.910156 110.964844 L 159.910156 92.929688 C 159.910156 60.75 113.484375 60.644531 113.484375 92.929688 Z M 107.761719 92.929688 C 107.761719 53.300781 165.632813 53.40625 165.632813 92.929688 L 165.632813 110.964844 C 165.632813 150.484375 107.761719 150.59375 107.761719 110.964844 Z M 107.761719 92.929688 "/><path style=" stroke:none;fill-rule:nonzero;fill:rgb(77.2995%,12.89978%,15.299988%);fill-opacity:1;" d="M 103.710938 15.519531 L 103.710938 2.34375 C 103.710938 1.378906 102.933594 0.601563 101.96875 0.601563 C 101.007813 0.601563 100.226563 1.378906 100.226563 2.34375 L 100.226563 15.519531 C 100.808594 15.507813 101.386719 15.476563 101.96875 15.476563 C 102.554688 15.476563 103.128906 15.507813 103.710938 15.519531 "/><path style=" stroke:none;fill-rule:nonzero;fill:rgb(77.2995%,12.89978%,15.299988%);fill-opacity:1;" d="M 114.859375 3.164063 C 114.96875 2.207031 114.28125 1.34375 113.324219 1.238281 C 112.394531 1.152344 111.507813 1.820313 111.398438 2.773438 L 109.925781 15.855469 C 111.085938 15.960938 112.238281 16.097656 113.386719 16.25 Z M 114.859375 3.164063 "/><path style=" stroke:none;fill-rule:nonzero;fill:rgb(77.2995%,12.89978%,15.299988%);fill-opacity:1;" d="M 125.851563 5.230469 C 126.0625 4.292969 125.476563 3.359375 124.539063 3.144531 C 123.601563 2.933594 122.671875 3.515625 122.453125 4.453125 L 119.527344 17.261719 C 120.671875 17.496094 121.800781 17.765625 122.925781 18.046875 Z M 125.851563 5.230469 "/><path style=" stroke:none;fill-rule:nonzero;fill:rgb(77.2995%,12.89978%,15.299988%);fill-opacity:1;" d="M 136.535156 8.515625 C 136.855469 7.605469 136.375 6.609375 135.46875 6.292969 C 134.558594 5.976563 133.566406 6.453125 133.246094 7.359375 L 128.902344 19.773438 C 130.011719 20.136719 131.109375 20.507813 132.195313 20.914063 Z M 136.535156 8.515625 "/><path style=" stroke:none;fill-rule:nonzero;fill:rgb(77.2995%,12.89978%,15.299988%);fill-opacity:1;" d="M 146.789063 12.972656 C 147.207031 12.105469 146.839844 11.0625 145.976563 10.644531 C 145.109375 10.222656 144.066406 10.59375 143.648438 11.460938 L 137.941406 23.3125 C 139 23.796875 140.042969 24.300781 141.078125 24.828125 Z M 146.789063 12.972656 "/><path style=" stroke:none;fill-rule:nonzero;fill:rgb(77.2995%,12.89978%,15.299988%);fill-opacity:1;" d="M 156.476563 18.554688 C 156.992188 17.738281 156.746094 16.664063 155.929688 16.152344 C 155.113281 15.636719 154.039063 15.886719 153.527344 16.699219 L 146.53125 27.828125 C 147.527344 28.425781 148.503906 29.054688 149.476563 29.695313 Z M 156.476563 18.554688 "/><path style=" stroke:none;fill-rule:nonzero;fill:rgb(77.2995%,12.89978%,15.299988%);fill-opacity:1;" d="M 165.480469 25.183594 C 166.082031 24.429688 165.960938 23.332031 165.207031 22.734375 C 164.453125 22.136719 163.355469 22.257813 162.757813 23.007813 L 154.546875 33.300781 C 155.46875 34.007813 156.382813 34.722656 157.277344 35.464844 Z M 165.480469 25.183594 "/><path style=" stroke:none;fill-rule:nonzero;fill:rgb(77.2995%,12.89978%,15.299988%);fill-opacity:1;" d="M 164.367188 42.089844 L 173.683594 32.777344 C 174.363281 32.097656 174.363281 30.992188 173.683594 30.3125 C 173.003906 29.632813 171.902344 29.632813 171.21875 30.3125 L 161.902344 39.625 C 162.742188 40.433594 163.5625 41.253906 164.367188 42.089844 "/><path style=" stroke:none;fill-rule:nonzero;fill:rgb(77.2995%,12.89978%,15.299988%);fill-opacity:1;" d="M 180.988281 41.246094 C 181.738281 40.644531 181.863281 39.546875 181.265625 38.796875 C 180.664063 38.042969 179.570313 37.925781 178.8125 38.519531 L 168.527344 46.71875 C 169.269531 47.613281 169.984375 48.527344 170.691406 49.453125 Z M 180.988281 41.246094 "/><path style=" stroke:none;fill-rule:nonzero;fill:rgb(77.2995%,12.89978%,15.299988%);fill-opacity:1;" d="M 187.292969 50.476563 C 188.109375 49.964844 188.355469 48.890625 187.839844 48.074219 C 187.328125 47.257813 186.253906 47.007813 185.441406 47.523438 L 174.296875 54.523438 C 174.933594 55.492188 175.558594 56.46875 176.160156 57.464844 Z M 187.292969 50.476563 "/><path style=" stroke:none;fill-rule:nonzero;fill:rgb(77.2995%,12.89978%,15.299988%);fill-opacity:1;" d="M 192.527344 60.355469 C 193.394531 59.9375 193.757813 58.898438 193.339844 58.03125 C 192.925781 57.164063 191.882813 56.792969 191.015625 57.214844 L 179.160156 62.921875 C 179.683594 63.957031 180.1875 65 180.671875 66.058594 Z M 192.527344 60.355469 "/><path style=" stroke:none;fill-rule:nonzero;fill:rgb(77.2995%,12.89978%,15.299988%);fill-opacity:1;" d="M 196.617188 70.761719 C 197.527344 70.441406 198.007813 69.449219 197.691406 68.542969 C 197.371094 67.632813 196.367188 67.152344 195.46875 67.46875 L 183.070313 71.804688 C 183.472656 72.890625 183.847656 73.992188 184.207031 75.097656 Z M 196.617188 70.761719 "/><path style=" stroke:none;fill-rule:nonzero;fill:rgb(77.2995%,12.89978%,15.299988%);fill-opacity:1;" d="M 199.523438 81.558594 C 200.460938 81.34375 201.050781 80.410156 200.835938 79.46875 C 200.621094 78.53125 199.691406 77.949219 198.75 78.160156 L 185.933594 81.078125 C 186.210938 82.203125 186.480469 83.332031 186.71875 84.476563 Z M 199.523438 81.558594 "/><path style=" stroke:none;fill-rule:nonzero;fill:rgb(77.2995%,12.89978%,15.299988%);fill-opacity:1;" d="M 201.199219 92.609375 C 202.15625 92.503906 202.84375 91.640625 202.734375 90.683594 C 202.628906 89.726563 201.761719 89.054688 200.808594 89.144531 L 187.726563 90.617188 C 187.878906 91.765625 188.011719 92.917969 188.117188 94.078125 Z M 201.199219 92.609375 "/><path style=" stroke:none;fill-rule:nonzero;fill:rgb(77.2995%,12.89978%,15.299988%);fill-opacity:1;" d="M 188.449219 103.777344 L 201.628906 103.78125 C 202.589844 103.78125 203.371094 103.003906 203.371094 102.039063 C 203.371094 101.078125 202.589844 100.296875 201.628906 100.296875 L 188.453125 100.292969 C 188.460938 100.863281 188.496094 101.425781 188.496094 102 C 188.496094 102.597656 188.460938 103.183594 188.449219 103.777344 "/><path style=" stroke:none;fill-rule:nonzero;fill:rgb(77.2995%,12.89978%,15.299988%);fill-opacity:1;" d="M 200.800781 114.929688 C 200.867188 114.9375 200.933594 114.941406 201 114.941406 C 201.875 114.941406 202.628906 114.285156 202.726563 113.394531 C 202.835938 112.441406 202.148438 111.578125 201.191406 111.46875 L 188.113281 109.992188 C 188.007813 111.152344 187.871094 112.304688 187.71875 113.453125 Z M 200.800781 114.929688 "/><path style=" stroke:none;fill-rule:nonzero;fill:rgb(77.2995%,12.89978%,15.299988%);fill-opacity:1;" d="M 198.730469 125.917969 C 198.859375 125.949219 198.992188 125.960938 199.121094 125.960938 C 199.914063 125.960938 200.632813 125.414063 200.816406 124.605469 C 201.03125 123.667969 200.445313 122.734375 199.507813 122.519531 L 186.703125 119.59375 C 186.464844 120.734375 186.199219 121.863281 185.917969 122.988281 Z M 198.730469 125.917969 "/><path style=" stroke:none;fill-rule:nonzero;fill:rgb(77.2995%,12.89978%,15.299988%);fill-opacity:1;" d="M 195.445313 136.605469 C 195.632813 136.667969 195.828125 136.703125 196.019531 136.703125 C 196.738281 136.703125 197.414063 136.253906 197.664063 135.535156 C 197.980469 134.628906 197.503906 133.632813 196.597656 133.316406 L 184.1875 128.964844 C 183.824219 130.074219 183.449219 131.171875 183.042969 132.257813 Z M 195.445313 136.605469 "/><path style=" stroke:none;fill-rule:nonzero;fill:rgb(77.2995%,12.89978%,15.299988%);fill-opacity:1;" d="M 190.976563 146.855469 C 191.222656 146.972656 191.484375 147.027344 191.734375 147.027344 C 192.382813 147.027344 193.003906 146.664063 193.304688 146.042969 C 193.722656 145.171875 193.359375 144.132813 192.496094 143.714844 L 180.644531 138 C 180.160156 139.058594 179.65625 140.105469 179.128906 141.140625 Z M 190.976563 146.855469 "/><path style=" stroke:none;fill-rule:nonzero;fill:rgb(77.2995%,12.89978%,15.299988%);fill-opacity:1;" d="M 185.398438 156.539063 C 185.683594 156.722656 186.007813 156.808594 186.324219 156.808594 C 186.902344 156.808594 187.46875 156.519531 187.800781 155.992188 C 188.3125 155.179688 188.066406 154.101563 187.253906 153.589844 L 176.125 146.59375 C 175.527344 147.589844 174.898438 148.5625 174.257813 149.53125 Z M 185.398438 156.539063 "/><path style=" stroke:none;fill-rule:nonzero;fill:rgb(77.2995%,12.89978%,15.299988%);fill-opacity:1;" d="M 178.765625 165.539063 C 179.082031 165.796875 179.464844 165.921875 179.851563 165.921875 C 180.359375 165.921875 180.867188 165.695313 181.210938 165.265625 C 181.8125 164.515625 181.691406 163.417969 180.9375 162.816406 L 170.648438 154.605469 C 169.941406 155.527344 169.226563 156.4375 168.484375 157.332031 Z M 178.765625 165.539063 "/><path style=" stroke:none;fill-rule:nonzero;fill:rgb(77.2995%,12.89978%,15.299988%);fill-opacity:1;" d="M 161.855469 164.417969 L 171.164063 173.742188 C 171.507813 174.082031 171.949219 174.253906 172.398438 174.253906 C 172.84375 174.253906 173.289063 174.082031 173.628906 173.742188 C 174.308594 173.0625 174.308594 171.957031 173.628906 171.277344 L 164.320313 161.957031 C 163.515625 162.792969 162.691406 163.613281 161.855469 164.417969 "/><path style=" stroke:none;fill-rule:nonzero;fill:rgb(77.2995%,12.89978%,15.299988%);fill-opacity:1;" d="M 162.695313 181.039063 C 163.039063 181.472656 163.546875 181.695313 164.058594 181.695313 C 164.4375 181.695313 164.820313 181.570313 165.140625 181.316406 C 165.894531 180.714844 166.019531 179.621094 165.421875 178.867188 L 157.226563 168.578125 C 156.332031 169.320313 155.417969 170.035156 154.492188 170.742188 Z M 162.695313 181.039063 "/><path style=" stroke:none;fill-rule:nonzero;fill:rgb(77.2995%,12.89978%,15.299988%);fill-opacity:1;" d="M 153.460938 187.34375 C 153.789063 187.871094 154.359375 188.160156 154.9375 188.160156 C 155.253906 188.160156 155.574219 188.074219 155.863281 187.894531 C 156.675781 187.382813 156.925781 186.308594 156.414063 185.492188 L 149.417969 174.34375 C 148.449219 174.980469 147.46875 175.609375 146.472656 176.207031 Z M 153.460938 187.34375 "/><path style=" stroke:none;fill-rule:nonzero;fill:rgb(77.2995%,12.89978%,15.299988%);fill-opacity:1;" d="M 143.578125 192.574219 C 143.878906 193.195313 144.503906 193.558594 145.152344 193.558594 C 145.402344 193.558594 145.660156 193.503906 145.90625 193.386719 C 146.773438 192.96875 147.136719 191.929688 146.71875 191.0625 L 141.019531 179.207031 C 139.984375 179.730469 138.9375 180.234375 137.878906 180.71875 Z M 143.578125 192.574219 "/><path style=" stroke:none;fill-rule:nonzero;fill:rgb(77.2995%,12.89978%,15.299988%);fill-opacity:1;" d="M 133.175781 196.664063 C 133.425781 197.382813 134.101563 197.832031 134.820313 197.832031 C 135.011719 197.832031 135.203125 197.800781 135.394531 197.734375 C 136.304688 197.417969 136.78125 196.421875 136.464844 195.515625 L 132.132813 183.109375 C 131.046875 183.515625 129.945313 183.886719 128.839844 184.25 Z M 133.175781 196.664063 "/><path style=" stroke:none;fill-rule:nonzero;fill:rgb(77.2995%,12.89978%,15.299988%);fill-opacity:1;" d="M 122.375 199.558594 C 122.558594 200.371094 123.277344 200.917969 124.074219 200.917969 C 124.203125 200.917969 124.332031 200.902344 124.460938 200.875 C 125.398438 200.660156 125.988281 199.726563 125.773438 198.789063 L 122.859375 185.96875 C 121.734375 186.25 120.605469 186.519531 119.460938 186.753906 Z M 122.375 199.558594 "/><path style=" stroke:none;fill-rule:nonzero;fill:rgb(77.2995%,12.89978%,15.299988%);fill-opacity:1;" d="M 111.320313 201.230469 C 111.421875 202.125 112.175781 202.78125 113.050781 202.78125 C 113.117188 202.78125 113.179688 202.777344 113.246094 202.769531 C 114.203125 202.664063 114.890625 201.800781 114.785156 200.847656 L 113.320313 187.761719 C 112.171875 187.910156 111.019531 188.046875 109.859375 188.152344 Z M 111.320313 201.230469 "/><path style=" stroke:none;fill-rule:nonzero;fill:rgb(77.2995%,12.89978%,15.299988%);fill-opacity:1;" d="M 100.160156 188.480469 L 100.148438 201.65625 C 100.148438 202.621094 100.929688 203.398438 101.890625 203.398438 L 101.894531 203.398438 C 102.855469 203.398438 103.636719 202.621094 103.636719 201.660156 L 103.644531 188.484375 C 103.085938 188.492188 102.53125 188.527344 101.96875 188.527344 C 101.363281 188.527344 100.765625 188.492188 100.160156 188.480469 "/><path style=" stroke:none;fill-rule:nonzero;fill:rgb(100%,76.899719%,5.499268%);fill-opacity:1;" d="M 89 200.824219 C 88.890625 201.78125 89.578125 202.644531 90.535156 202.753906 C 90.601563 202.761719 90.667969 202.765625 90.734375 202.765625 C 91.605469 202.765625 92.363281 202.109375 92.460938 201.21875 L 93.945313 188.140625 C 92.785156 188.035156 91.632813 187.894531 90.484375 187.742188 Z M 89 200.824219 "/><path style=" stroke:none;fill-rule:nonzero;fill:rgb(100%,76.899719%,5.499268%);fill-opacity:1;" d="M 78.015625 198.75 C 77.800781 199.691406 78.386719 200.625 79.324219 200.839844 C 79.453125 200.871094 79.585938 200.882813 79.714844 200.882813 C 80.511719 200.882813 81.226563 200.335938 81.414063 199.53125 L 84.347656 186.726563 C 83.207031 186.488281 82.074219 186.222656 80.949219 185.941406 Z M 78.015625 198.75 "/><path style=" stroke:none;fill-rule:nonzero;fill:rgb(100%,76.899719%,5.499268%);fill-opacity:1;" d="M 67.328125 195.460938 C 67.011719 196.367188 67.488281 197.363281 68.398438 197.683594 C 68.585938 197.746094 68.78125 197.777344 68.972656 197.777344 C 69.691406 197.777344 70.367188 197.328125 70.617188 196.613281 L 74.972656 184.207031 C 73.863281 183.84375 72.765625 183.46875 71.679688 183.0625 Z M 67.328125 195.460938 "/><path style=" stroke:none;fill-rule:nonzero;fill:rgb(100%,76.899719%,5.499268%);fill-opacity:1;" d="M 57.082031 190.992188 C 56.664063 191.859375 57.027344 192.898438 57.890625 193.320313 C 58.136719 193.4375 58.394531 193.492188 58.648438 193.492188 C 59.296875 193.492188 59.917969 193.128906 60.21875 192.507813 L 65.9375 180.664063 C 64.878906 180.175781 63.832031 179.667969 62.800781 179.140625 Z M 57.082031 190.992188 "/><path style=" stroke:none;fill-rule:nonzero;fill:rgb(100%,76.899719%,5.499268%);fill-opacity:1;" d="M 47.398438 185.40625 C 46.882813 186.21875 47.128906 187.296875 47.945313 187.808594 C 48.230469 187.992188 48.550781 188.078125 48.871094 188.078125 C 49.449219 188.078125 50.015625 187.789063 50.347656 187.261719 L 57.347656 176.140625 C 56.351563 175.539063 55.378906 174.910156 54.40625 174.269531 Z M 47.398438 185.40625 "/><path style=" stroke:none;fill-rule:nonzero;fill:rgb(100%,76.899719%,5.499268%);fill-opacity:1;" d="M 38.398438 178.769531 C 37.796875 179.519531 37.917969 180.617188 38.671875 181.21875 C 38.992188 181.472656 39.375 181.597656 39.761719 181.597656 C 40.269531 181.597656 40.777344 181.375 41.121094 180.945313 L 49.339844 170.660156 C 48.417969 169.953125 47.503906 169.234375 46.613281 168.492188 Z M 38.398438 178.769531 "/><path style=" stroke:none;fill-rule:nonzero;fill:rgb(100%,76.899719%,5.499268%);fill-opacity:1;" d="M 39.527344 161.859375 L 30.203125 171.164063 C 29.519531 171.84375 29.519531 172.949219 30.195313 173.628906 C 30.539063 173.96875 30.984375 174.140625 31.433594 174.140625 C 31.875 174.140625 32.324219 173.96875 32.664063 173.632813 L 41.988281 164.328125 C 41.152344 163.519531 40.332031 162.699219 39.527344 161.859375 "/><path style=" stroke:none;fill-rule:nonzero;fill:rgb(100%,76.899719%,5.499268%);fill-opacity:1;" d="M 22.90625 162.695313 C 22.15625 163.292969 22.03125 164.386719 22.628906 165.140625 C 22.972656 165.574219 23.480469 165.796875 23.992188 165.796875 C 24.375 165.796875 24.757813 165.671875 25.078125 165.421875 L 35.367188 157.230469 C 34.628906 156.335938 33.910156 155.421875 33.207031 154.496094 Z M 22.90625 162.695313 "/><path style=" stroke:none;fill-rule:nonzero;fill:rgb(100%,76.899719%,5.499268%);fill-opacity:1;" d="M 16.605469 153.457031 C 15.792969 153.96875 15.546875 155.046875 16.058594 155.859375 C 16.386719 156.386719 16.953125 156.675781 17.535156 156.675781 C 17.851563 156.675781 18.171875 156.589844 18.460938 156.410156 L 29.609375 149.421875 C 28.972656 148.449219 28.34375 147.472656 27.746094 146.472656 Z M 16.605469 153.457031 "/><path style=" stroke:none;fill-rule:nonzero;fill:rgb(100%,76.899719%,5.499268%);fill-opacity:1;" d="M 11.382813 143.574219 C 10.511719 143.988281 10.148438 145.03125 10.5625 145.898438 C 10.867188 146.523438 11.488281 146.886719 12.136719 146.886719 C 12.390625 146.886719 12.644531 146.832031 12.890625 146.714844 L 24.75 141.019531 C 24.226563 139.984375 23.722656 138.9375 23.238281 137.878906 Z M 11.382813 143.574219 "/><path style=" stroke:none;fill-rule:nonzero;fill:rgb(100%,76.899719%,5.499268%);fill-opacity:1;" d="M 7.296875 133.167969 C 6.386719 133.480469 5.90625 134.476563 6.222656 135.386719 C 6.476563 136.105469 7.148438 136.554688 7.871094 136.554688 C 8.058594 136.554688 8.253906 136.523438 8.445313 136.457031 L 20.847656 132.132813 C 20.441406 131.046875 20.070313 129.945313 19.710938 128.839844 Z M 7.296875 133.167969 "/><path style=" stroke:none;fill-rule:nonzero;fill:rgb(100%,76.899719%,5.499268%);fill-opacity:1;" d="M 4.402344 122.367188 C 3.460938 122.582031 2.875 123.515625 3.085938 124.453125 C 3.269531 125.261719 3.988281 125.808594 4.785156 125.808594 C 4.914063 125.808594 5.042969 125.796875 5.171875 125.765625 L 17.992188 122.855469 C 17.714844 121.730469 17.441406 120.601563 17.207031 119.460938 Z M 4.402344 122.367188 "/><path style=" stroke:none;fill-rule:nonzero;fill:rgb(100%,76.899719%,5.499268%);fill-opacity:1;" d="M 2.734375 111.316406 C 1.777344 111.421875 1.089844 112.285156 1.195313 113.238281 C 1.292969 114.128906 2.050781 114.789063 2.925781 114.789063 C 2.988281 114.789063 3.054688 114.785156 3.121094 114.777344 L 16.207031 113.316406 C 16.054688 112.167969 15.921875 111.015625 15.816406 109.855469 Z M 2.734375 111.316406 "/><path style=" stroke:none;fill-rule:nonzero;fill:rgb(100%,76.899719%,5.499268%);fill-opacity:1;" d="M 15.492188 100.15625 L 2.3125 100.140625 C 1.351563 100.140625 0.570313 100.917969 0.570313 101.878906 C 0.570313 102.84375 1.347656 103.621094 2.308594 103.625 L 15.488281 103.640625 C 15.476563 103.09375 15.445313 102.550781 15.445313 102 C 15.445313 101.382813 15.480469 100.773438 15.492188 100.15625 "/><path style=" stroke:none;fill-rule:nonzero;fill:rgb(100%,76.899719%,5.499268%);fill-opacity:1;" d="M 3.152344 88.992188 C 2.183594 88.890625 1.332031 89.566406 1.222656 90.527344 C 1.113281 91.484375 1.800781 92.34375 2.753906 92.453125 L 15.832031 93.941406 C 15.9375 92.78125 16.078125 91.628906 16.230469 90.480469 Z M 3.152344 88.992188 "/><path style=" stroke:none;fill-rule:nonzero;fill:rgb(100%,76.899719%,5.499268%);fill-opacity:1;" d="M 5.226563 78.007813 C 4.289063 77.792969 3.355469 78.382813 3.140625 79.316406 C 2.925781 80.253906 3.511719 81.1875 4.449219 81.40625 L 17.253906 84.34375 C 17.492188 83.203125 17.757813 82.070313 18.039063 80.945313 Z M 5.226563 78.007813 "/><path style=" stroke:none;fill-rule:nonzero;fill:rgb(100%,76.899719%,5.499268%);fill-opacity:1;" d="M 8.523438 67.324219 C 7.617188 67.011719 6.621094 67.480469 6.304688 68.390625 C 5.984375 69.296875 6.460938 70.292969 7.367188 70.613281 L 19.773438 74.972656 C 20.140625 73.863281 20.515625 72.765625 20.921875 71.679688 Z M 8.523438 67.324219 "/><path style=" stroke:none;fill-rule:nonzero;fill:rgb(100%,76.899719%,5.499268%);fill-opacity:1;" d="M 12.996094 57.074219 C 12.125 56.65625 11.085938 57.019531 10.667969 57.886719 C 10.25 58.753906 10.613281 59.792969 11.480469 60.214844 L 23.324219 65.9375 C 23.808594 64.878906 24.316406 63.832031 24.84375 62.800781 Z M 12.996094 57.074219 "/><path style=" stroke:none;fill-rule:nonzero;fill:rgb(100%,76.899719%,5.499268%);fill-opacity:1;" d="M 18.585938 47.394531 C 17.773438 46.882813 16.695313 47.125 16.183594 47.941406 C 15.667969 48.753906 15.914063 49.832031 16.726563 50.34375 L 27.847656 57.351563 C 28.449219 56.355469 29.078125 55.378906 29.71875 54.410156 Z M 18.585938 47.394531 "/><path style=" stroke:none;fill-rule:nonzero;fill:rgb(100%,76.899719%,5.499268%);fill-opacity:1;" d="M 25.226563 38.398438 C 24.472656 37.796875 23.378906 37.925781 22.777344 38.671875 C 22.175781 39.421875 22.296875 40.519531 23.050781 41.121094 L 33.332031 49.34375 C 34.039063 48.421875 34.757813 47.507813 35.503906 46.617188 Z M 25.226563 38.398438 "/><path style=" stroke:none;fill-rule:nonzero;fill:rgb(100%,76.899719%,5.499268%);fill-opacity:1;" d="M 42.136719 39.535156 L 32.832031 30.207031 C 32.152344 29.523438 31.046875 29.523438 30.367188 30.199219 C 29.683594 30.882813 29.683594 31.984375 30.363281 32.664063 L 39.667969 41.992188 C 40.472656 41.15625 41.296875 40.335938 42.136719 39.535156 "/><path style=" stroke:none;fill-rule:nonzero;fill:rgb(100%,76.899719%,5.499268%);fill-opacity:1;" d="M 41.308594 22.914063 C 40.707031 22.160156 39.609375 22.039063 38.859375 22.636719 C 38.105469 23.234375 37.980469 24.332031 38.582031 25.082031 L 46.765625 35.378906 C 47.660156 34.636719 48.578125 33.921875 49.5 33.214844 Z M 41.308594 22.914063 "/><path style=" stroke:none;fill-rule:nonzero;fill:rgb(100%,76.899719%,5.499268%);fill-opacity:1;" d="M 50.546875 16.617188 C 50.035156 15.804688 48.964844 15.554688 48.144531 16.066406 C 47.328125 16.574219 47.082031 17.652344 47.59375 18.46875 L 54.578125 29.621094 C 55.550781 28.984375 56.527344 28.359375 57.527344 27.757813 Z M 50.546875 16.617188 "/><path style=" stroke:none;fill-rule:nonzero;fill:rgb(100%,76.899719%,5.499268%);fill-opacity:1;" d="M 60.429688 11.394531 C 60.019531 10.53125 58.980469 10.160156 58.109375 10.578125 C 57.238281 10.992188 56.875 12.035156 57.292969 12.902344 L 62.980469 24.761719 C 64.015625 24.242188 65.0625 23.738281 66.121094 23.253906 Z M 60.429688 11.394531 "/><path style=" stroke:none;fill-rule:nonzero;fill:rgb(100%,76.899719%,5.499268%);fill-opacity:1;" d="M 70.839844 7.3125 C 70.523438 6.402344 69.535156 5.925781 68.621094 6.242188 C 67.714844 6.554688 67.234375 7.550781 67.550781 8.460938 L 71.871094 20.863281 C 72.957031 20.460938 74.058594 20.089844 75.164063 19.730469 Z M 70.839844 7.3125 "/><path style=" stroke:none;fill-rule:nonzero;fill:rgb(100%,76.899719%,5.499268%);fill-opacity:1;" d="M 81.640625 4.421875 C 81.425781 3.480469 80.484375 2.894531 79.554688 3.105469 C 78.617188 3.320313 78.027344 4.253906 78.242188 5.191406 L 81.148438 18.015625 C 82.273438 17.738281 83.402344 17.464844 84.542969 17.230469 Z M 81.640625 4.421875 "/><path style=" stroke:none;fill-rule:nonzero;fill:rgb(100%,76.899719%,5.499268%);fill-opacity:1;" d="M 92.695313 2.761719 C 92.589844 1.804688 91.742188 1.089844 90.769531 1.222656 C 89.816406 1.328125 89.125 2.1875 89.234375 3.144531 L 90.6875 16.230469 C 91.835938 16.082031 92.988281 15.949219 94.148438 15.84375 Z M 92.695313 2.761719 "/><path style=" stroke:none;fill-rule:nonzero;fill:rgb(100%,76.899719%,5.499268%);fill-opacity:1;" d="M 230.367188 165.25 C 227.242188 165.25 225.027344 167.628906 225.027344 170.921875 C 225.027344 174.136719 227.242188 176.515625 230.367188 176.515625 C 233.414063 176.515625 235.707031 174.136719 235.707031 170.921875 C 235.707031 167.710938 233.414063 165.25 230.367188 165.25 M 230.367188 160.117188 C 236.421875 160.035156 241.59375 165 241.46875 170.878906 C 241.59375 176.765625 236.378906 181.8125 230.328125 181.6875 C 224.277344 181.8125 219.1875 176.765625 219.3125 170.878906 C 219.1875 165 224.320313 159.992188 230.367188 160.117188 "/><path style=" stroke:none;fill-rule:nonzero;fill:rgb(100%,76.899719%,5.499268%);fill-opacity:1;" d="M 278.328125 160.574219 L 282.875 160.574219 L 282.875 165.332031 L 278.328125 165.332031 L 278.328125 181.226563 L 272.695313 181.226563 L 272.695313 165.332031 L 269.773438 165.332031 L 269.773438 160.574219 L 272.695313 160.574219 L 272.695313 157.195313 C 272.695313 152.023438 275.703125 149.433594 280.667969 149.433594 C 281.75 149.433594 282.792969 149.601563 283.753906 149.890625 L 283.753906 154.605469 C 283.125 154.523438 282.585938 154.480469 282.085938 154.480469 C 279.539063 154.480469 278.328125 155.359375 278.328125 157.695313 Z M 278.328125 160.574219 "/><path style=" stroke:none;fill-rule:nonzero;fill:rgb(100%,76.899719%,5.499268%);fill-opacity:1;" d="M 350.539063 172.71875 C 352.335938 175.179688 354.296875 176.722656 357.296875 176.722656 C 359.761719 176.722656 361.222656 175.554688 361.222656 173.675781 C 361.222656 172.046875 360.347656 171.46875 357.714844 170.253906 L 354.757813 168.921875 C 350.539063 167.042969 348.078125 164.664063 348.078125 160.992188 C 348.078125 156.277344 352 153.191406 357.214844 153.191406 C 361.429688 153.191406 364.601563 155.234375 366.3125 158.40625 L 362.472656 161.367188 C 361.054688 159.242188 359.304688 158.195313 357.214844 158.195313 C 355.257813 158.195313 353.792969 159.15625 353.792969 160.867188 C 353.792969 162.328125 354.671875 162.992188 357.007813 164.039063 L 360.136719 165.414063 C 364.769531 167.457031 366.9375 169.753906 366.9375 173.46875 C 366.9375 178.515625 362.804688 181.730469 357.296875 181.730469 C 352.625 181.730469 348.785156 179.351563 346.660156 175.636719 Z M 350.539063 172.71875 "/><path style=" stroke:none;fill-rule:nonzero;fill:rgb(100%,76.899719%,5.499268%);fill-opacity:1;" d="M 408.175781 165.207031 C 405.34375 165.207031 402.960938 167.171875 402.960938 170.878906 C 402.960938 174.554688 405.300781 176.597656 408.175781 176.597656 C 411.183594 176.597656 413.519531 174.300781 413.519531 170.921875 C 413.519531 167.460938 411.222656 165.207031 408.175781 165.207031 M 409.222656 181.730469 C 406.71875 181.730469 404.550781 180.851563 403.046875 179.226563 L 403.046875 188.738281 L 397.414063 188.738281 L 397.414063 160.574219 L 402.585938 160.574219 L 402.585938 163.160156 C 403.964844 161.199219 406.382813 160.117188 409.222656 160.117188 C 414.980469 160.117188 419.234375 164.707031 419.234375 170.878906 C 419.234375 177.058594 414.980469 181.730469 409.222656 181.730469 "/><path style=" stroke:none;fill-rule:nonzero;fill:rgb(100%,76.899719%,5.499268%);fill-opacity:1;" d="M 461.226563 173.261719 L 456.804688 173.261719 C 454.96875 173.261719 453.929688 173.96875 453.929688 175.34375 C 453.929688 176.71875 455.09375 177.601563 456.886719 177.601563 C 459.351563 177.601563 461.226563 175.890625 461.226563 173.511719 Z M 466.863281 181.230469 L 461.691406 181.230469 L 461.691406 179.226563 C 460.183594 180.773438 458.015625 181.730469 455.386719 181.730469 C 451.007813 181.730469 448.253906 179.183594 448.253906 175.554688 C 448.253906 171.839844 451.257813 169.546875 456.054688 169.546875 L 461.226563 169.546875 L 461.226563 168.628906 C 461.226563 166.332031 459.894531 165 457.390625 165 C 455.261719 165 453.761719 165.875 451.921875 167.832031 L 449.003906 164.375 C 451.382813 161.535156 454.386719 160.117188 458.015625 160.117188 C 463.398438 160.117188 466.863281 163.242188 466.863281 168.960938 Z M 466.863281 181.230469 "/><path style=" stroke:none;fill-rule:nonzero;fill:rgb(100%,76.899719%,5.499268%);fill-opacity:1;" d="M 517.15625 181.226563 L 511.566406 181.226563 L 511.566406 169.171875 C 511.566406 166.792969 510.023438 165.164063 507.726563 165.164063 C 505.429688 165.164063 503.804688 166.792969 503.804688 169.171875 L 503.804688 181.226563 L 498.171875 181.226563 L 498.171875 160.574219 L 503.34375 160.574219 L 503.34375 162.453125 C 504.804688 160.992188 506.933594 160.117188 509.394531 160.117188 C 514.191406 160.117188 517.15625 163.414063 517.15625 168.421875 Z M 517.15625 181.226563 "/><path style=" stroke:none;fill-rule:nonzero;fill:rgb(100%,76.899719%,5.499268%);fill-opacity:1;" d="M 548.46875 160.574219 L 554.105469 160.574219 L 554.105469 181.226563 L 548.46875 181.226563 Z M 551.265625 149.5625 C 553.269531 149.5625 554.894531 151.0625 554.894531 153.0625 C 554.894531 155.027344 553.269531 156.527344 551.265625 156.527344 C 549.265625 156.527344 547.675781 155.027344 547.675781 153.0625 C 547.675781 151.0625 549.265625 149.5625 551.265625 149.5625 "/><path style=" stroke:none;fill-rule:nonzero;fill:rgb(100%,76.899719%,5.499268%);fill-opacity:1;" d="M 586.53125 174.300781 C 588.324219 176.183594 590.289063 177.097656 592.332031 177.097656 C 593.835938 177.097656 594.960938 176.515625 594.960938 175.386719 C 594.960938 174.511719 594.378906 174.175781 592.835938 173.511719 L 590.621094 172.59375 C 586.824219 171.046875 584.988281 169.339844 584.988281 166.289063 C 584.988281 162.410156 588.074219 160.117188 592.582031 160.117188 C 595.671875 160.117188 598.132813 161.160156 600.007813 163.203125 L 597.171875 166.667969 C 595.796875 165.375 594.253906 164.707031 592.539063 164.707031 C 591.164063 164.707031 590.332031 165.207031 590.332031 166.164063 C 590.332031 166.957031 590.871094 167.332031 592.5 168 L 594.503906 168.835938 C 598.507813 170.464844 600.300781 172.09375 600.300781 175.136719 C 600.300781 177.183594 599.550781 178.808594 598.007813 179.976563 C 596.503906 181.148438 594.585938 181.730469 592.25 181.730469 C 588.621094 181.730469 585.574219 180.230469 583.695313 177.726563 Z M 586.53125 174.300781 "/><path style=" stroke:none;fill-rule:nonzero;fill:rgb(100%,76.899719%,5.499268%);fill-opacity:1;" d="M 649.429688 181.226563 L 643.839844 181.226563 L 643.839844 169.214844 C 643.839844 166.832031 642.292969 165.207031 640 165.207031 C 637.703125 165.207031 636.078125 166.832031 636.078125 169.214844 L 636.078125 181.226563 L 630.445313 181.226563 L 630.445313 149.933594 L 636.078125 149.933594 L 636.078125 162.328125 C 637.453125 160.949219 639.457031 160.117188 641.75 160.117188 C 646.421875 160.117188 649.429688 163.414063 649.429688 168.421875 Z M 649.429688 181.226563 "/></g></svg>